<svg width="24.000000" height="24.000000" viewBox="0 0 24 24" fill="none" xmlns="http://www.w3.org/2000/svg" xmlns:xlink="http://www.w3.org/1999/xlink">
	<desc>
			Created with Pixso.
	</desc>
	<defs>
		<clipPath id="clip16_107">
			<rect rx="-0.500000" width="23.000000" height="23.000000" transform="translate(0.500000 0.500000)" fill="white" fill-opacity="0"/>
		</clipPath>
	</defs>
	<rect rx="-0.500000" width="23.000000" height="23.000000" transform="translate(0.500000 0.500000)" fill="#FFFFFF" fill-opacity="0"/>
	<g clip-path="url(#clip16_107)">
		<path d="M10.52 2.28C10.97 2.03 11.48 1.89 12 1.89C12.51 1.89 13.02 2.03 13.47 2.28C13.92 2.53 14.29 2.9 14.56 3.34L14.56 3.34L23.03 17.48L23.04 17.49C23.3 17.95 23.44 18.46 23.44 18.99C23.44 19.51 23.31 20.03 23.05 20.48C22.79 20.94 22.42 21.32 21.96 21.58C21.51 21.85 21 21.99 20.48 21.99L20.46 22L3.51 22C2.99 21.99 2.48 21.85 2.03 21.58C1.57 21.32 1.2 20.94 0.94 20.48C0.68 20.03 0.55 19.51 0.55 18.99C0.55 18.46 0.69 17.95 0.95 17.49L0.96 17.48L9.43 3.34L10.29 3.85L9.43 3.34C9.7 2.9 10.07 2.53 10.52 2.28ZM11.14 4.37L2.68 18.5C2.59 18.65 2.55 18.82 2.55 18.99C2.55 19.17 2.59 19.34 2.68 19.49C2.76 19.64 2.89 19.77 3.04 19.86C3.19 19.94 3.36 19.99 3.53 20L20.46 20C20.63 19.99 20.8 19.94 20.95 19.86C21.1 19.77 21.23 19.64 21.31 19.49C21.4 19.34 21.44 19.17 21.44 18.99C21.44 18.82 21.4 18.65 21.31 18.5L12.85 4.37C12.85 4.37 12.85 4.37 12.85 4.37C12.76 4.23 12.63 4.1 12.49 4.02C12.34 3.94 12.17 3.89 12 3.89C11.82 3.89 11.65 3.94 11.5 4.02C11.36 4.1 11.23 4.23 11.14 4.37Z" fill="#f03d3e" fill-opacity="1.000000" fill-rule="evenodd"/>
		<path d="M12 8C12.55 8 13 8.44 13 9L13 13C13 13.55 12.55 14 12 14C11.44 14 11 13.55 11 13L11 9C11 8.44 11.44 8 12 8Z" fill="#f03d3e" fill-opacity="1.000000" fill-rule="evenodd"/>
		<path d="M12 15C12.55 15 13 15.44 13 16L13 16.5C13 17.05 12.55 17.5 12 17.5C11.44 17.5 11 17.05 11 16.5L11 16C11 15.44 11.44 15 12 15Z" fill="#f03d3e" fill-opacity="1.000000" fill-rule="evenodd"/>
	</g>
</svg>
