<svg width="24.000000" height="24.000000" viewBox="0 0 24 24" fill="none" xmlns="http://www.w3.org/2000/svg" xmlns:xlink="http://www.w3.org/1999/xlink">
	<desc>
			Created with Pixso.
	</desc>
	<defs>
		<clipPath id="clip16_106">
			<rect rx="-0.500000" width="23.000000" height="23.000000" transform="translate(0.500000 0.500000)" fill="white" fill-opacity="0"/>
		</clipPath>
	</defs>
	<rect rx="-0.500000" width="23.000000" height="23.000000" transform="translate(0.500000 0.500000)" fill="#FFFFFF" fill-opacity="0"/>
	<g clip-path="url(#clip16_106)">
		<path d="M15.66 3.77C13.89 2.98 11.9 2.78 10.01 3.21C8.12 3.64 6.41 4.67 5.15 6.14C3.89 7.62 3.14 9.46 3.01 11.4C2.89 13.33 3.39 15.26 4.44 16.89C5.5 18.52 7.06 19.76 8.88 20.43C10.7 21.1 12.69 21.17 14.55 20.62C16.41 20.07 18.04 18.93 19.2 17.38C20.37 15.82 20.99 13.94 21 11.99L21 11.08C21 10.52 21.44 10.08 22 10.08C22.55 10.08 23 10.52 23 11.08L23 12C22.99 14.37 22.23 16.68 20.81 18.58C19.38 20.48 17.39 21.87 15.11 22.54C12.84 23.21 10.41 23.13 8.18 22.31C5.96 21.49 4.06 19.97 2.77 17.98C1.48 15.99 0.86 13.63 1.02 11.27C1.17 8.9 2.09 6.65 3.63 4.84C5.17 3.04 7.26 1.78 9.57 1.26C11.88 0.74 14.31 0.98 16.47 1.94C16.98 2.17 17.2 2.76 16.98 3.26C16.75 3.77 16.16 3.99 15.66 3.77Z" fill="#4263EB" fill-opacity="1.000000" fill-rule="evenodd"/>
		<path d="M22.7 3.29C23.09 3.68 23.09 4.31 22.7 4.7L12.7 14.71C12.52 14.9 12.26 15 12 15.01C11.73 15.01 11.48 14.9 11.29 14.71L8.29 11.71C7.9 11.32 7.9 10.69 8.29 10.3C8.68 9.91 9.31 9.91 9.7 10.3L11.99 12.59L21.29 3.29C21.68 2.9 22.31 2.9 22.7 3.29Z" fill="#4263EB" fill-opacity="1.000000" fill-rule="evenodd"/>
	</g>
</svg>
