<svg width="24.000000" height="24.000000" viewBox="0 0 24 24" fill="none" xmlns="http://www.w3.org/2000/svg" xmlns:xlink="http://www.w3.org/1999/xlink">
	<desc>
			Created with Pixso.
	</desc>
	<defs>
		<clipPath id="clip16_105">
			<rect id="Icon/Help" rx="-0.500000" width="23.000000" height="23.000000" transform="translate(0.500000 0.500000)" fill="white" fill-opacity="0"/>
		</clipPath>
	</defs>
	<rect id="Icon/Help" rx="-0.500000" width="23.000000" height="23.000000" transform="translate(0.500000 0.500000)" fill="#FFFFFF" fill-opacity="0"/>
	<g clip-path="url(#clip16_105)">
		<path id="Vector (Stroke)" d="M12 3C7.02 3 3 7.02 3 12C3 16.97 7.02 21 12 21C16.97 21 21 16.97 21 12C21 7.02 16.97 3 12 3ZM1 12C1 5.92 5.92 1 12 1C18.07 1 23 5.92 23 12C23 18.07 18.07 23 12 23C5.92 23 1 18.07 1 12Z" fill="#212429" fill-opacity="1.000000" fill-rule="evenodd"/>
		<path id="Vector (Stroke)" d="M12.25 8.02C11.79 7.94 11.31 8.03 10.9 8.27C10.49 8.51 10.19 8.88 10.03 9.33C9.85 9.85 9.27 10.12 8.75 9.94C8.23 9.76 7.96 9.18 8.14 8.66C8.46 7.77 9.07 7.02 9.89 6.54C10.7 6.06 11.66 5.89 12.59 6.05C13.52 6.21 14.37 6.69 14.98 7.41C15.58 8.14 15.92 9.05 15.92 10C15.91 11.53 14.78 12.54 13.97 13.08C13.53 13.37 13.11 13.58 12.79 13.72C12.63 13.79 12.5 13.85 12.4 13.88C12.35 13.9 12.31 13.92 12.28 13.93L12.25 13.94L12.24 13.94L12.23 13.94L12.23 13.94C12.23 13.94 12.23 13.94 11.92 13L12.23 13.94C11.71 14.12 11.14 13.84 10.97 13.31C10.79 12.79 11.07 12.22 11.6 12.05L11.6 12.05C11.6 12.05 11.6 12.05 11.6 12.05L11.61 12.04C11.63 12.04 11.65 12.03 11.69 12.01C11.76 11.99 11.86 11.95 11.98 11.89C12.22 11.78 12.55 11.62 12.86 11.41C13.55 10.95 13.92 10.46 13.92 10L13.92 9.99C13.92 9.52 13.75 9.06 13.45 8.7C13.14 8.34 12.72 8.1 12.25 8.02Z" fill="#212429" fill-opacity="1.000000" fill-rule="evenodd"/>
		<path id="Vector 2 (Stroke)" d="M12 15C12.55 15 13 15.44 13 16L13 16.5C13 17.05 12.55 17.5 12 17.5C11.44 17.5 11 17.05 11 16.5L11 16C11 15.44 11.44 15 12 15Z" fill="#212429" fill-opacity="1.000000" fill-rule="evenodd"/>
	</g>
</svg>
