<svg width="24.000000" height="24.000000" viewBox="0 0 24 24" fill="none" xmlns="http://www.w3.org/2000/svg" xmlns:xlink="http://www.w3.org/1999/xlink">
	<desc>
			Created with Pixso.
	</desc>
	<defs>
		<clipPath id="clip16890_10">
			<rect rx="-0.500000" width="23.000000" height="23.000000" transform="translate(0.500000 0.500000)" fill="white" fill-opacity="0"/>
		</clipPath>
	</defs>
	<rect rx="-0.500000" width="23.000000" height="23.000000" transform="translate(0.500000 0.500000)" fill="#FFFFFF" fill-opacity="0"/>
	<g clip-path="url(#clip16890_10)">
		<path d="M12.08 2.5C12.27 2.85 12.24 3.27 12.01 3.59C11.15 4.75 10.74 6.17 10.85 7.6C10.96 9.04 11.58 10.38 12.59 11.4C13.61 12.41 14.95 13.03 16.39 13.14C17.82 13.25 19.24 12.84 20.4 11.98L21 12.79L21.99 12.88C21.82 14.77 21.11 16.57 19.94 18.07C18.78 19.58 17.22 20.72 15.43 21.36C13.64 22.01 11.71 22.13 9.86 21.72C8 21.3 6.31 20.37 4.96 19.03C3.62 17.68 2.69 15.99 2.27 14.13C1.86 12.28 1.98 10.35 2.63 8.56C3.27 6.77 4.41 5.21 5.92 4.05C7.42 2.88 9.22 2.17 11.11 2C11.51 1.96 11.88 2.16 12.08 2.5ZM19.56 14.68C18.5 15.06 17.37 15.22 16.24 15.13C14.33 14.99 12.53 14.17 11.18 12.81C9.82 11.46 9 9.66 8.86 7.75C8.77 6.62 8.93 5.49 9.31 4.43C8.53 4.72 7.8 5.12 7.14 5.63C5.94 6.56 5.03 7.81 4.51 9.24C3.99 10.67 3.89 12.21 4.22 13.7C4.56 15.18 5.3 16.54 6.38 17.61C7.45 18.69 8.81 19.43 10.29 19.77C11.78 20.1 13.32 20 14.75 19.48C16.18 18.96 17.43 18.05 18.36 16.85C18.87 16.19 19.27 15.46 19.56 14.68Z" fill="#212429" fill-opacity="1.000000" fill-rule="evenodd"/>
	</g>
</svg>
