<svg xmlns="http://www.w3.org/2000/svg" xmlns:xlink="http://www.w3.org/1999/xlink">
	<symbol id="sun">
		<defs>
			<clipPath id="clip16890_0">
				<rect rx="-0.500000" width="23.000000" height="23.000000" transform="translate(0.500000 0.500000)" fill="currentColor" fill-opacity="0"/>
			</clipPath>
		</defs>
		<rect rx="-0.500000" width="23.000000" height="23.000000" transform="translate(0.500000 0.500000)" fill="currentColor" fill-opacity="0"/>
		<g clip-path="url(#clip16890_0)">
			<path d="M12 8C9.79 8 8 9.79 8 12C8 14.2 9.79 16 12 16C14.2 16 16 14.2 16 12C16 9.79 14.2 8 12 8ZM6 12C6 8.68 8.68 6 12 6C15.31 6 18 8.68 18 12C18 15.31 15.31 18 12 18C8.68 18 6 15.31 6 12Z" fill="currentColor" fill-opacity="1.000000" fill-rule="evenodd"/>
			<path d="M12 0C12.55 0 13 0.44 13 1L13 3C13 3.55 12.55 4 12 4C11.44 4 11 3.55 11 3L11 1C11 0.44 11.44 0 12 0Z" fill="currentColor" fill-opacity="1.000000" fill-rule="evenodd"/>
			<path d="M12 20C12.55 20 13 20.44 13 21L13 23C13 23.55 12.55 24 12 24C11.44 24 11 23.55 11 23L11 21C11 20.44 11.44 20 12 20Z" fill="currentColor" fill-opacity="1.000000" fill-rule="evenodd"/>
			<path d="M3.51 3.51C3.9 3.12 4.53 3.12 4.92 3.51L6.34 4.93C6.73 5.32 6.73 5.95 6.34 6.34C5.95 6.73 5.32 6.73 4.93 6.34L3.51 4.92C3.12 4.53 3.12 3.9 3.51 3.51Z" fill="currentColor" fill-opacity="1.000000" fill-rule="evenodd"/>
			<path d="M17.65 17.65C18.04 17.26 18.67 17.26 19.06 17.65L20.48 19.07C20.87 19.46 20.87 20.09 20.48 20.48C20.09 20.87 19.46 20.87 19.07 20.48L17.65 19.06C17.26 18.67 17.26 18.04 17.65 17.65Z" fill="currentColor" fill-opacity="1.000000" fill-rule="evenodd"/>
			<path d="M0 12C0 11.44 0.44 11 1 11L3 11C3.55 11 4 11.44 4 12C4 12.55 3.55 13 3 13L1 13C0.44 13 0 12.55 0 12Z" fill="currentColor" fill-opacity="1.000000" fill-rule="evenodd"/>
			<path d="M20 12C20 11.44 20.44 11 21 11L23 11C23.55 11 24 11.44 24 12C24 12.55 23.55 13 23 13L21 13C20.44 13 20 12.55 20 12Z" fill="currentColor" fill-opacity="1.000000" fill-rule="evenodd"/>
			<path d="M6.34 17.65C6.73 18.04 6.73 18.67 6.34 19.06L4.92 20.48C4.53 20.87 3.9 20.87 3.51 20.48C3.12 20.09 3.12 19.46 3.51 19.07L4.93 17.65C5.32 17.26 5.95 17.26 6.34 17.65Z" fill="currentColor" fill-opacity="1.000000" fill-rule="evenodd"/>
			<path d="M20.48 3.51C20.87 3.9 20.87 4.53 20.48 4.92L19.06 6.34C18.67 6.73 18.04 6.73 17.65 6.34C17.26 5.95 17.26 5.32 17.65 4.93L19.07 3.51C19.46 3.12 20.09 3.12 20.48 3.51Z" fill="currentColor" fill-opacity="1.000000" fill-rule="evenodd"/>
		</g>
	</symbol>
</svg>
